<?xml version="1.0" encoding="UTF-8"?>
<svg width="24px" height="24px" viewBox="0 0 24 24" version="1.1" xmlns="http://www.w3.org/2000/svg" xmlns:xlink="http://www.w3.org/1999/xlink">
    <!-- Generator: Sketch 49.1 (51147) - http://www.bohemiancoding.com/sketch -->
    <title>instagram-icon</title>
    <desc>Created with Sketch.</desc>
    <defs></defs>
    <g id="Symbols" stroke="none" stroke-width="1" fill="none" fill-rule="evenodd">
        <g id="footer" transform="translate(-1368.000000, -54.000000)" fill="#FFFFFF">
            <g id="instagram-icon" transform="translate(1368.000000, 54.000000)">
                <g>
                    <path d="M11.9962143,0.047529505 C8.7382619,0.047529505 8.32969048,0.0613116832 7.05021429,0.11957703 C5.77330952,0.177699802 4.90130952,0.380107723 4.13821429,0.676091881 C3.34940476,0.982008713 2.68035714,1.39138693 2.01345238,2.05697109 C1.3465,2.72260277 0.936357143,3.39027802 0.629785714,4.17752554 C0.333214286,4.9391097 0.130452381,5.80938297 0.0721666667,7.08375921 C0.0137857143,8.36074931 2.38095238e-05,8.76841663 2.38095238e-05,12.0199651 C2.38095238e-05,15.2715137 0.0137857143,15.6792285 0.0721666667,16.9562186 C0.130452381,18.2305473 0.333214286,19.1008681 0.629785714,19.8624048 C0.936357143,20.6496523 1.3465,21.317375 2.01345238,21.9829592 C2.68035714,22.6485909 3.34940476,23.0579216 4.13821429,23.3639335 C4.90130952,23.6598701 5.77330952,23.862278 7.05021429,23.9204483 C8.32969048,23.9786661 8.7382619,23.9924483 11.9962143,23.9924483 C15.2542143,23.9924483 15.6626905,23.9786661 16.9422143,23.9204483 C18.219119,23.862278 19.091119,23.6598701 19.8542143,23.3639335 C20.6430714,23.0579216 21.3120714,22.6485909 21.9789762,21.9829592 C22.6459286,21.317375 23.0560714,20.6496998 23.3626429,19.8624048 C23.6592143,19.1008681 23.8620238,18.2305473 23.9202619,16.9562186 C23.9786429,15.6792285 23.9924524,15.2715137 23.9924524,12.0199651 C23.9924524,8.76846416 23.9786429,8.36074931 23.9202619,7.08375921 C23.8620238,5.80938297 23.6592143,4.9391097 23.3626429,4.17752554 C23.0560714,3.39027802 22.6459286,2.72260277 21.9789762,2.05697109 C21.3120714,1.39138693 20.6430714,0.982008713 19.8542143,0.676091881 C19.091119,0.380107723 18.219119,0.177699802 16.9422143,0.11957703 C15.6626905,0.0613116832 15.2542143,0.047529505 11.9962143,0.047529505 M11.9962143,2.20472554 C15.1993571,2.20472554 15.5787381,2.21689188 16.8436905,2.27449188 C18.0133095,2.32776713 18.6485,2.52280871 19.0712143,2.68676911 C19.6311667,2.90395723 20.0308333,3.16339485 20.4505952,3.58232554 C20.8703571,4.00130376 21.1303095,4.40013149 21.3479762,4.95897505 C21.5122143,5.38085228 21.7076429,6.01478495 21.7610238,7.18208792 C21.8186905,8.44453545 21.8309286,8.82321267 21.8309286,12.0199651 C21.8309286,15.2167651 21.8186905,15.5954424 21.7610238,16.8578424 C21.7076429,18.0251929 21.5122143,18.6591255 21.3479762,19.0810028 C21.1303095,19.6397988 20.8703571,20.0386741 20.4505952,20.4576048 C20.0308333,20.876583 19.6311667,21.1360206 19.0712143,21.3532087 C18.6485,21.5171216 18.0133095,21.7122107 16.8436905,21.7654384 C15.5789286,21.8230384 15.1995952,21.8352523 11.9962143,21.8352523 C8.79283333,21.8352523 8.4135,21.8230384 7.1487381,21.7654384 C5.97911905,21.7122107 5.34388095,21.5171216 4.92116667,21.3532087 C4.3612619,21.1360206 3.96159524,20.876583 3.54183333,20.4576048 C3.12207143,20.0386741 2.86207143,19.6397988 2.64445238,19.0810028 C2.48021429,18.6591255 2.28478571,18.0251929 2.23140476,16.8578899 C2.17369048,15.5954424 2.1615,15.2167651 2.1615,12.0199651 C2.1615,8.82321267 2.17369048,8.44453545 2.23140476,7.18208792 C2.28478571,6.01478495 2.48021429,5.38085228 2.64445238,4.95897505 C2.86207143,4.40013149 3.12207143,4.00130376 3.54183333,3.58237307 C3.96159524,3.16339485 4.3612619,2.90395723 4.92116667,2.68676911 C5.34388095,2.52280871 5.97911905,2.32776713 7.14869048,2.27449188 C8.41369048,2.21689188 8.79307143,2.20472554 11.9962143,2.20472554" id="Fill-1"></path>
                    <path d="M11.9962143,16.0108087 C9.78778571,16.0108087 7.99745238,14.2240206 7.99745238,12.0199651 C7.99745238,9.8159097 9.78778571,8.02916911 11.9962143,8.02916911 C14.2046429,8.02916911 15.9949762,9.8159097 15.9949762,12.0199651 C15.9949762,14.2240206 14.2046429,16.0108087 11.9962143,16.0108087 M11.9962143,5.87197307 C8.59402381,5.87197307 5.83597619,8.62451168 5.83597619,12.0199651 C5.83597619,15.4154661 8.59402381,18.1680048 11.9962143,18.1680048 C15.3984048,18.1680048 18.1564048,15.4154661 18.1564048,12.0199651 C18.1564048,8.62451168 15.3984048,5.87197307 11.9962143,5.87197307" id="Fill-4"></path>
                    <path d="M19.8393619,5.62906455 C19.8393619,6.42253782 19.1948857,7.06573782 18.3998381,7.06573782 C17.6047905,7.06573782 16.9602667,6.42253782 16.9602667,5.62906455 C16.9602667,4.83559129 17.6047905,4.19239129 18.3998381,4.19239129 C19.1948857,4.19239129 19.8393619,4.83559129 19.8393619,5.62906455" id="Fill-6"></path>
                </g>
            </g>
        </g>
    </g>
</svg>