<?xml version="1.0" encoding="UTF-8"?>
<svg width="30px" height="24px" viewBox="0 0 30 24" version="1.1" xmlns="http://www.w3.org/2000/svg" xmlns:xlink="http://www.w3.org/1999/xlink">
    <!-- Generator: Sketch 49.1 (51147) - http://www.bohemiancoding.com/sketch -->
    <title>twitter-icon</title>
    <desc>Created with Sketch.</desc>
    <defs></defs>
    <g id="Symbols" stroke="none" stroke-width="1" fill="none" fill-rule="evenodd">
        <g id="footer" transform="translate(-1315.000000, -54.000000)" fill="#FFFFFF" fill-rule="nonzero">
            <g id="twitter-icon" transform="translate(1315.000000, 54.000000)">
                <path d="M9.27857339,23.822402 C20.2951004,23.822402 26.3191876,14.695775 26.3191876,6.78178971 C26.3191876,6.52256229 26.3139076,6.26450449 26.3022798,6.00761339 C27.4717156,5.16220996 28.4881861,4.1072062 29.2898018,2.90624131 C28.2166991,3.38324082 27.0618593,3.70435494 25.8503853,3.84914841 C27.0869642,3.10766694 28.0362916,1.93472816 28.4840993,0.53642449 C27.3269231,1.22243951 26.0453887,1.72104196 24.6809486,1.99019265 C23.5879954,0.826010449 22.0320549,0.0979591837 20.309136,0.0979591837 C17.0016676,0.0979591837 14.3194942,2.78013257 14.3194942,6.08643233 C14.3194942,6.55642482 14.3720395,7.01357486 14.4747967,7.45203918 C9.49695576,7.20157127 5.083104,4.8183262 2.12944555,1.19441535 C1.61507951,2.07952065 1.31848849,3.10766694 1.31848849,4.20470694 C1.31848849,6.28260343 2.37582661,8.11703706 3.98372865,9.19013976 C3.00112261,9.15978024 2.07806694,8.89004376 1.27119576,8.44106939 C1.27031412,8.46619788 1.27031412,8.49069649 1.27031412,8.51755298 C1.27031412,11.4180823 3.33478237,13.8398616 6.07533943,14.388673 C5.57206727,14.5258766 5.04252147,14.59944 4.49604539,14.59944 C4.11070922,14.59944 3.73529829,14.5615141 3.37039739,14.4914302 C4.13289502,16.8711722 6.34390629,18.6028487 8.96536065,18.6513091 C6.91548833,20.2580424 4.33315298,21.2149616 1.52662237,21.2149616 C1.04378351,21.2149616 0.56678498,21.1874978 0.0979591837,21.1320549 C2.74860539,22.8310384 5.89610057,23.822402 9.27888294,23.822402" id="path3611"></path>
            </g>
        </g>
    </g>
</svg>